<?xml version="1.0" encoding="UTF-8" standalone="no"?>
<!-- Created with Inkscape (http://www.inkscape.org/) -->

<svg
   xmlns:dc="http://purl.org/dc/elements/1.1/"
   xmlns:cc="http://creativecommons.org/ns#"
   xmlns:rdf="http://www.w3.org/1999/02/22-rdf-syntax-ns#"
   xmlns:svg="http://www.w3.org/2000/svg"
   xmlns="http://www.w3.org/2000/svg"
   xmlns:sodipodi="http://sodipodi.sourceforge.net/DTD/sodipodi-0.dtd"
   xmlns:inkscape="http://www.inkscape.org/namespaces/inkscape"
   width="16"
   height="16"
   viewBox="0 0 4.2333333 4.2333332"
   version="1.1"
   id="svg1663"
   inkscape:version="0.92.4 5da689c313, 2019-01-14"
   sodipodi:docname="titlebutton-maximize-active.svg">
  <defs
     id="defs1657" />
  <sodipodi:namedview
     id="base"
     pagecolor="#ffffff"
     bordercolor="#666666"
     borderopacity="1.0"
     inkscape:pageopacity="0.0"
     inkscape:pageshadow="2"
     inkscape:zoom="42.777778"
     inkscape:cx="6.534155"
     inkscape:cy="8.7662339"
     inkscape:document-units="mm"
     inkscape:current-layer="g3841"
     showgrid="true"
     units="px"
     inkscape:window-width="1920"
     inkscape:window-height="1014"
     inkscape:window-x="0"
     inkscape:window-y="0"
     inkscape:window-maximized="1"
     inkscape:measure-start="1,16"
     inkscape:measure-end="1.02857,15.9429">
    <inkscape:grid
       type="xygrid"
       id="grid815" />
  </sodipodi:namedview>
  <metadata
     id="metadata1660">
    <rdf:RDF>
      <cc:Work
         rdf:about="">
        <dc:format>image/svg+xml</dc:format>
        <dc:type
           rdf:resource="http://purl.org/dc/dcmitype/StillImage" />
        <dc:title></dc:title>
      </cc:Work>
    </rdf:RDF>
  </metadata>
  <g
     inkscape:label="Layer 1"
     inkscape:groupmode="layer"
     id="layer1"
     transform="translate(0,-292.76669)">
    <g
       id="g3837"
       transform="matrix(0.71264185,-0.70148238,0.70143814,0.7126868,-206.23386,86.208687)">
      <g
         id="g3841">
        <path
           style="font-weight:400;font-family:sans-serif;overflow:visible;opacity:1;fill:#808080;stroke:#808080;stroke-width:0.09527853;stroke-miterlimit:4;stroke-dasharray:none;stroke-opacity:1;fill-opacity:1"
           inkscape:connector-curvature="0"
           id="path2"
           overflow="visible"
           d="m 1.6007812,293.86725 c -0.2279566,-0.21923 -0.3852336,-0.38949 -0.5914014,-0.44988 a 0.47260136,0.46020347 44.546069 0 0 -0.3213284,0.0265 c -0.10460193,0.0472 -0.20515711,0.1278 -0.31797439,0.24242 l -0.34343021,0.34892 c -0.11298865,0.11479 -0.19170276,0.21627 -0.23735307,0.32177 -0.046001,0.10552 -0.0530637,0.21911 -0.021417,0.32171 0.0634725,0.20536 0.23637548,0.35974 0.45918059,0.58421 l 0.36046587,0.35479 c 0.22795616,0.21922 0.38523322,0.38947 0.59140061,0.44986 a 0.47260136,0.46020347 44.546069 0 0 0.3215081,-0.0263 c 0.1044227,-0.0472 0.2049777,-0.12798 0.3177946,-0.2426 l 0.3434305,-0.34891 c 0.1129889,-0.11479 0.1917029,-0.21627 0.2373533,-0.32178 a 0.47260136,0.46020347 44.546069 0 0 0.021415,-0.32171 c -0.063472,-0.20536 -0.2363753,-0.35975 -0.45918,-0.5842 l -0.359749,-0.35408 z m -0.170641,0.17549 0.3583166,0.35271 c 0.2229837,0.22463 0.3635994,0.37848 0.3944844,0.47826 0.015792,0.0498 0.015551,0.0881 -0.011716,0.15058 -0.027266,0.0625 -0.087071,0.14581 -0.1887255,0.2491 l -0.3434306,0.3489 c -0.1016555,0.10329 -0.1840328,0.1644 -0.2460571,0.19264 -0.062207,0.028 -0.09989,0.0294 -0.1500234,0.0146 -0.1000788,-0.0292 -0.25650739,-0.16764 -0.48482158,-0.3872 l -0.3583162,-0.3527 C 0.1768669,294.865 0.03571407,294.71061 0.00500814,294.61101 c -0.0156169,-0.0498 -0.0150114,-0.0875 0.0120739,-0.15022 0.0272667,-0.0625 0.08707,-0.14584 0.18872537,-0.24912 l 0.34343064,-0.34891 c 0.10165541,-0.10329 0.18403227,-0.1644 0.2460564,-0.19265 0.062205,-0.028 0.099898,-0.029 0.15002356,-0.0146 0.10007889,0.0292 0.25650759,0.16764 0.48482109,0.3872 z" />
        <path
           style="font-weight:400;font-family:sans-serif;overflow:visible;fill:#000000;stroke:#000000;stroke-width:0.158755;stroke-miterlimit:4;stroke-dasharray:none;stroke-opacity:1"
           inkscape:connector-curvature="0"
           id="path4"
           overflow="visible"
           d="m 2.970395,293.49617 c -0.2362095,-0.22702 -0.3989164,-0.40361 -0.6144676,-0.46414 a 0.48956348,0.48953261 44.550957 0 0 -0.3376306,0.0323 c -0.1104439,0.051 -0.2171097,0.13705 -0.3371165,0.25897 l -0.1826588,0.18558 0.185588,0.18267 0.1826588,-0.18558 c 0.108134,-0.10986 0.1954467,-0.17518 0.2609401,-0.20571 0.065679,-0.0303 0.1052551,-0.0319 0.1576663,-0.0173 0.1046367,0.0292 0.2668943,0.17245 0.5034751,0.39983 l 0.9279399,0.91335 c 0.2309154,0.23277 0.3763626,0.39237 0.4073908,0.49671 0.015882,0.0522 0.015097,0.0923 -0.014392,0.15829 -0.029489,0.066 -0.093418,0.1543 -0.201552,0.26417 l -0.7306351,0.7423 c -0.108134,0.10986 -0.1954467,0.17518 -0.2609401,0.20571 -0.065679,0.0303 -0.1052551,0.0319 -0.1576663,0.0173 -0.1051905,-0.0294 -0.2672655,-0.17282 -0.504403,-0.40075 l -0.1846601,-0.18176 -0.1826588,0.18558 0.1867015,0.18377 c 0.2362096,0.22701 0.3989165,0.4036 0.6144677,0.46414 a 0.48956348,0.48953261 44.550957 0 0 0.3376306,-0.0323 c 0.1104439,-0.051 0.2171097,-0.13705 0.3371165,-0.25898 l 0.7306351,-0.7423 c 0.1201895,-0.12211 0.2042195,-0.22976 0.253602,-0.34118 a 0.48956348,0.48953261 44.550957 0 0 0.026771,-0.33828 c -0.063576,-0.21457 -0.2429049,-0.37427 -0.4736348,-0.60686 l -0.9294253,-0.9148 z" />
      </g>
    </g>
  </g>
</svg>
