<?xml version="1.0" encoding="UTF-8" standalone="no"?>
<!-- Created with Inkscape (http://www.inkscape.org/) -->

<svg
   xmlns:dc="http://purl.org/dc/elements/1.1/"
   xmlns:cc="http://creativecommons.org/ns#"
   xmlns:rdf="http://www.w3.org/1999/02/22-rdf-syntax-ns#"
   xmlns:svg="http://www.w3.org/2000/svg"
   xmlns="http://www.w3.org/2000/svg"
   xmlns:sodipodi="http://sodipodi.sourceforge.net/DTD/sodipodi-0.dtd"
   xmlns:inkscape="http://www.inkscape.org/namespaces/inkscape"
   width="16"
   height="16"
   viewBox="0 0 4.2333333 4.2333332"
   version="1.1"
   id="svg1663"
   inkscape:version="0.92.4 5da689c313, 2019-01-14"
   sodipodi:docname="titlebutton-maximize-active@2.svg">
  <defs
     id="defs1657" />
  <sodipodi:namedview
     id="base"
     pagecolor="#ffffff"
     bordercolor="#666666"
     borderopacity="1.0"
     inkscape:pageopacity="0.0"
     inkscape:pageshadow="2"
     inkscape:zoom="42.777778"
     inkscape:cx="3.9341051"
     inkscape:cy="8.7077923"
     inkscape:document-units="mm"
     inkscape:current-layer="g3841"
     showgrid="true"
     units="px"
     inkscape:window-width="1920"
     inkscape:window-height="1014"
     inkscape:window-x="0"
     inkscape:window-y="0"
     inkscape:window-maximized="1"
     inkscape:measure-start="1,16"
     inkscape:measure-end="1.02857,15.9429">
    <inkscape:grid
       type="xygrid"
       id="grid815" />
  </sodipodi:namedview>
  <metadata
     id="metadata1660">
    <rdf:RDF>
      <cc:Work
         rdf:about="">
        <dc:format>image/svg+xml</dc:format>
        <dc:type
           rdf:resource="http://purl.org/dc/dcmitype/StillImage" />
        <dc:title></dc:title>
      </cc:Work>
    </rdf:RDF>
  </metadata>
  <g
     inkscape:label="Layer 1"
     inkscape:groupmode="layer"
     id="layer1"
     transform="translate(0,-292.76669)">
    <g
       id="g3837"
       transform="matrix(0.71264185,-0.70148238,0.70143814,0.7126868,-206.23386,86.208687)">
      <g
         id="g3841">
        <g
           font-weight="400"
           id="g6"
           transform="matrix(0.18558799,0.1826703,-0.18265878,0.18557629,2.1788498,291.84617)"
           style="font-weight:400;font-family:sans-serif;fill:#666666">
          <path
             d="M 3.994,7 C 2.736,7.015 1.815,6.97 1.062,7.385 A 1.88,1.88 0 0 0 0.225,8.383 C 0.06,8.82 0,9.343 0,10 v 2 c 0,0.658 0.06,1.179 0.225,1.617 0.164,0.439 0.461,0.79 0.837,0.998 0.753,0.416 1.674,0.37 2.932,0.385 h 2.012 c 1.258,-0.015 2.179,0.03 2.932,-0.385 A 1.88,1.88 0 0 0 9.776,13.617 C 9.94,13.18 10,12.657 10,12 V 10 C 10,9.342 9.94,8.821 9.775,8.383 A 1.88,1.88 0 0 0 8.938,7.385 C 8.185,6.969 7.264,7.015 6.006,7 H 3.998 Z M 4,8 H 6 C 7.259,8.015 8.087,8.06 8.453,8.262 8.637,8.362 8.743,8.474 8.84,8.734 8.937,8.994 9,9.408 9,10 v 2 C 9,12.592 8.937,13.006 8.84,13.266 8.742,13.526 8.638,13.637 8.455,13.738 8.09,13.94 7.26,13.985 6,14 H 4 C 2.741,13.985 1.91,13.94 1.545,13.738 1.362,13.638 1.258,13.526 1.16,13.266 1.063,13.006 1,12.592 1,12 V 10 C 1,9.408 1.063,8.994 1.16,8.734 1.258,8.474 1.362,8.363 1.545,8.262 1.91,8.06 2.74,8.015 4,8 Z"
             overflow="visible"
             id="path2"
             inkscape:connector-curvature="0"
             style="overflow:visible;opacity:0.5;fill:#666666" />
          <path
             d="M 6.994,2 C 5.736,2.015 4.815,1.97 4.062,2.385 A 1.88,1.88 0 0 0 3.225,3.383 C 3.06,3.82 3,4.343 3,5 V 6 H 4 V 5 C 4,4.408 4.063,3.994 4.16,3.734 4.258,3.474 4.362,3.363 4.545,3.262 4.91,3.06 5.74,3.015 7,3 h 5 c 1.259,0.015 2.087,0.06 2.453,0.262 0.184,0.1 0.29,0.212 0.387,0.472 C 14.937,3.994 15,4.408 15,5 v 4 c 0,0.592 -0.063,1.006 -0.16,1.266 -0.098,0.26 -0.202,0.371 -0.385,0.472 -0.367,0.203 -1.197,0.247 -2.46,0.262 H 11 v 1 h 1.006 c 1.258,-0.015 2.179,0.03 2.932,-0.385 a 1.88,1.88 0 0 0 0.837,-0.998 C 15.94,10.18 16,9.657 16,9 V 5 C 16,4.342 15.94,3.821 15.775,3.383 A 1.88,1.88 0 0 0 14.937,2.385 C 14.185,1.969 13.264,2.015 12.006,2 H 6.998 Z"
             overflow="visible"
             id="path4"
             inkscape:connector-curvature="0"
             style="overflow:visible;fill:#666666" />
        </g>
      </g>
    </g>
  </g>
</svg>
